<svg xmlns="http://www.w3.org/2000/svg" xmlns:xlink="http://www.w3.org/1999/xlink" viewBox="0 0 375.95 523.53">
  <defs>
    <style>
      .cls-1 {
        fill: url(#linear-gradient);
      }

      .cls-2 {
        fill: url(#linear-gradient-2);
      }

      .cls-3 {
        fill: url(#linear-gradient-3);
      }

      .cls-4 {
        fill: url(#linear-gradient-4);
      }

      .cls-5 {
        fill: url(#linear-gradient-5);
      }

      .cls-6 {
        fill: #464796;
      }

      .cls-7 {
        fill: url(#linear-gradient-6);
      }

      .cls-8 {
        fill: url(#linear-gradient-7);
      }

      .cls-9 {
        fill: url(#linear-gradient-8);
      }
    </style>
    <linearGradient id="linear-gradient" x1="521.31" y1="415.86" x2="463.23" y2="502.03" gradientUnits="userSpaceOnUse">
      <stop offset="0" stop-color="#002727"/>
      <stop offset="1" stop-color="#016d76"/>
    </linearGradient>
    <linearGradient id="linear-gradient-2" x1="373.69" y1="462.06" x2="284.16" y2="490.95" gradientUnits="userSpaceOnUse">
      <stop offset="0" stop-color="#05918b"/>
      <stop offset="0.91" stop-color="#25b1a1"/>
    </linearGradient>
    <linearGradient id="linear-gradient-3" x1="180.8" y1="292.94" x2="175.09" y2="185.7" xlink:href="#linear-gradient"/>
    <linearGradient id="linear-gradient-4" x1="237.33" y1="298.03" x2="500.31" y2="59.76" gradientTransform="translate(249.58 -213.3) rotate(47.21)" xlink:href="#linear-gradient"/>
    <linearGradient id="linear-gradient-5" x1="323.22" y1="318.11" x2="307.82" y2="150.48" xlink:href="#linear-gradient-2"/>
    <linearGradient id="linear-gradient-6" x1="517" y1="374.31" x2="447.16" y2="307.02" gradientTransform="translate(404.63 -244.53) rotate(47.21)" xlink:href="#linear-gradient-2"/>
    <linearGradient id="linear-gradient-7" x1="353.95" y1="224.92" x2="265.17" y2="253.56" xlink:href="#linear-gradient-2"/>
    <linearGradient id="linear-gradient-8" x1="178.26" y1="130.85" x2="89.2" y2="159.59" xlink:href="#linear-gradient-2"/>
  </defs>
  <g id="Brand_Icon" data-name="Brand Icon">
    <g>
      <path class="cls-1" d="M590.59,475.31l-129.38-99c-.26-.2-.54-.35-.8-.54l-9.69-7.42a46.72,46.72,0,0,0-65.49,8.72h0A46.73,46.73,0,0,0,394,442.59l129.38,99c.26.2.53.36.79.55l9.7,7.41a46.72,46.72,0,0,0,65.49-8.72h0A46.71,46.71,0,0,0,590.59,475.31Z" transform="translate(-232.97 -35.87)"/>
      <circle class="cls-2" cx="328.92" cy="476.5" r="47.03"/>
      <rect class="cls-3" y="192.61" width="355.88" height="93.43" rx="46.71"/>
      <rect class="cls-4" x="190.88" y="132.18" width="355.88" height="93.43" rx="46.71" transform="translate(-245.96 292.18) rotate(-47.21)"/>
      <path class="cls-5" d="M333.66,148.11,245.4,243.47a46.72,46.72,0,0,0,2.55,66h0a46.71,46.71,0,0,0,66-2.55l86.17-93.1" transform="translate(-232.97 -35.87)"/>
      <path class="cls-6" d="M489.69,48.3" transform="translate(-232.97 -35.87)"/>
      <rect class="cls-7" x="346.95" y="293.95" width="270.26" height="93.43" rx="46.71" transform="translate(-328.36 427.19) rotate(-47.21)"/>
      <circle class="cls-8" cx="309.56" cy="239.24" r="46.63"/>
      <circle class="cls-9" cx="133.73" cy="145.22" r="46.78"/>
    </g>
  </g>
</svg>
