<svg id="canvas" height="auto" xmlns="http://www.w3.org/2000/svg" version="1.1" xmlns:xlink="http://www.w3.org/1999/xlink" xmlns:svgjs="http://svgjs.dev/svgjs" viewBox="0 0 900 512" width="auto" style="width: auto; height: auto;"><rect width="900" height="512" fill="#191a96"/><line x1="8" y1="0" x2="8" y2="249.05929567750837" stroke-dasharray="8" stroke-linecap="round" stroke-width="4" stroke="#86595f"/><circle r="3.3366323712208015" cx="7.3366323712208015" cy="342.39592804872916" fill="#2762ea"/><circle r="3.6881948712208015" cx="7.6881948712208015" cy="372.74749054872916" fill="#2752ea"/><circle r="4.0397573712208015" cx="8.039757371220801" cy="403.09905304872916" fill="#2742ea"/><circle r="4.3913198712208015" cx="8.391319871220801" cy="433.45061554872916" fill="#2732ea"/><circle r="4.7428823712208015" cx="8.742882371220801" cy="463.80217804872916" fill="#2c27ea"/><circle r="5.0944448712208015" cx="9.094444871220801" cy="494.15374054872916" fill="#3c27ea"/><line x1="38" y1="0" x2="38" y2="223.3977901122696" stroke-dasharray="8" stroke-linecap="round" stroke-width="4" stroke="#86595f"/><circle r="3.0359116028781594" cx="37.03591160287816" cy="316.4337017151478" fill="#2762ea"/><circle r="3.3874741028781594" cx="37.38747410287816" cy="346.7852642151478" fill="#2752ea"/><circle r="3.7390366028781594" cx="37.73903660287816" cy="377.1368267151478" fill="#2742ea"/><circle r="4.090599102878159" cx="38.09059910287816" cy="407.4883892151478" fill="#2732ea"/><circle r="4.442161602878159" cx="38.44216160287816" cy="437.8399517151478" fill="#2c27ea"/><circle r="4.793724102878159" cx="38.79372410287816" cy="468.1915142151478" fill="#3c27ea"/><circle r="5.145286602878159" cx="39.14528660287816" cy="498.5430767151478" fill="#4c27ea"/><line x1="68" y1="0" x2="68" y2="264.47197207986807" stroke-dasharray="8" stroke-linecap="round" stroke-width="4" stroke="#86595f"/><circle r="3.517249672810954" cx="67.51724967281095" cy="357.98922175267904" fill="#2762ea"/><circle r="3.868812172810954" cx="67.86881217281095" cy="388.34078425267904" fill="#2752ea"/><circle r="4.220374672810954" cx="68.22037467281095" cy="418.69234675267904" fill="#2742ea"/><circle r="4.571937172810954" cx="68.57193717281095" cy="449.04390925267904" fill="#2732ea"/><circle r="4.923499672810954" cx="68.92349967281095" cy="479.39547175267904" fill="#2c27ea"/><circle r="5.275062172810954" cx="69.27506217281095" cy="509.74703425267904" fill="#3c27ea"/><line x1="98" y1="0" x2="98" y2="183.80674771639747" stroke-dasharray="8" stroke-linecap="round" stroke-width="4" stroke="#86595f"/><circle r="2.571954074801533" cx="96.57195407480154" cy="276.378701791199" fill="#2762ea"/><circle r="2.923516574801533" cx="96.92351657480154" cy="306.730264291199" fill="#2752ea"/><circle r="3.275079074801533" cx="97.27507907480154" cy="337.081826791199" fill="#2742ea"/><circle r="3.626641574801533" cx="97.62664157480154" cy="367.433389291199" fill="#2732ea"/><circle r="3.978204074801533" cx="97.97820407480154" cy="397.784951791199" fill="#2c27ea"/><circle r="4.329766574801533" cx="98.32976657480154" cy="428.136514291199" fill="#3c27ea"/><circle r="4.681329074801533" cx="98.68132907480154" cy="458.488076791199" fill="#4c27ea"/><circle r="5.032891574801533" cx="99.03289157480154" cy="488.839639291199" fill="#5c27ea"/><line x1="128" y1="0" x2="128" y2="246.10655774588213" stroke-dasharray="8" stroke-linecap="round" stroke-width="4" stroke="#86595f"/><circle r="3.302029973584556" cx="127.30202997358455" cy="339.4085877194667" fill="#2762ea"/><circle r="3.653592473584556" cx="127.65359247358455" cy="369.7601502194667" fill="#2752ea"/><circle r="4.005154973584556" cx="128.00515497358455" cy="400.1117127194667" fill="#2742ea"/><circle r="4.356717473584556" cx="128.35671747358455" cy="430.4632752194667" fill="#2732ea"/><circle r="4.708279973584556" cx="128.70827997358455" cy="460.8148377194667" fill="#2c27ea"/><circle r="5.059842473584556" cx="129.05984247358455" cy="491.1664002194667" fill="#3c27ea"/><line x1="158" y1="0" x2="158" y2="169.08978443207263" stroke-dasharray="8" stroke-linecap="round" stroke-width="4" stroke="#86595f"/><circle r="2.399489661313351" cx="156.39948966131334" cy="261.489274093386" fill="#2762ea"/><circle r="2.751052161313351" cx="156.75105216131334" cy="291.840836593386" fill="#2752ea"/><circle r="3.102614661313351" cx="157.10261466131334" cy="322.192399093386" fill="#2742ea"/><circle r="3.454177161313351" cx="157.45417716131334" cy="352.543961593386" fill="#2732ea"/><circle r="3.805739661313351" cx="157.80573966131334" cy="382.895524093386" fill="#2c27ea"/><circle r="4.157302161313352" cx="158.15730216131334" cy="413.247086593386" fill="#3c27ea"/><circle r="4.508864661313352" cx="158.50886466131334" cy="443.598649093386" fill="#4c27ea"/><circle r="4.860427161313352" cx="158.86042716131334" cy="473.950211593386" fill="#5c27ea"/><circle r="5.211989661313352" cx="159.21198966131334" cy="504.301774093386" fill="#6c27ea"/><line x1="188" y1="0" x2="188" y2="197.92476757105544" stroke-dasharray="8" stroke-linecap="round" stroke-width="4" stroke="#86595f"/><circle r="2.737399619973306" cx="186.7373996199733" cy="290.66216719102874" fill="#2762ea"/><circle r="3.088962119973306" cx="187.0889621199733" cy="321.01372969102874" fill="#2752ea"/><circle r="3.440524619973306" cx="187.4405246199733" cy="351.36529219102874" fill="#2742ea"/><circle r="3.792087119973306" cx="187.7920871199733" cy="381.71685469102874" fill="#2732ea"/><circle r="4.143649619973306" cx="188.1436496199733" cy="412.06841719102874" fill="#2c27ea"/><circle r="4.495212119973306" cx="188.4952121199733" cy="442.41997969102874" fill="#3c27ea"/><circle r="4.846774619973306" cx="188.8467746199733" cy="472.77154219102874" fill="#4c27ea"/><circle r="5.198337119973306" cx="189.1983371199733" cy="503.12310469102874" fill="#5c27ea"/><line x1="218" y1="0" x2="218" y2="185.10623790381652" stroke-dasharray="8" stroke-linecap="round" stroke-width="4" stroke="#86595f"/><circle r="2.58718247543535" cx="216.58718247543536" cy="277.69342037925185" fill="#2762ea"/><circle r="2.93874497543535" cx="216.93874497543536" cy="308.04498287925185" fill="#2752ea"/><circle r="3.29030747543535" cx="217.29030747543536" cy="338.39654537925185" fill="#2742ea"/><circle r="3.64186997543535" cx="217.64186997543536" cy="368.74810787925185" fill="#2732ea"/><circle r="3.99343247543535" cx="217.99343247543536" cy="399.09967037925185" fill="#2c27ea"/><circle r="4.34499497543535" cx="218.34499497543536" cy="429.45123287925185" fill="#3c27ea"/><circle r="4.69655747543535" cx="218.69655747543536" cy="459.80279537925185" fill="#4c27ea"/><circle r="5.04811997543535" cx="219.04811997543536" cy="490.15435787925185" fill="#5c27ea"/><line x1="248" y1="0" x2="248" y2="187.41200711555763" stroke-dasharray="8" stroke-linecap="round" stroke-width="4" stroke="#86595f"/><circle r="2.614203208385441" cx="246.61420320838545" cy="280.0262103239431" fill="#2762ea"/><circle r="2.965765708385441" cx="246.96576570838545" cy="310.3777728239431" fill="#2752ea"/><circle r="3.317328208385441" cx="247.31732820838545" cy="340.7293353239431" fill="#2742ea"/><circle r="3.668890708385441" cx="247.66889070838545" cy="371.0808978239431" fill="#2732ea"/><circle r="4.020453208385441" cx="248.02045320838545" cy="401.4324603239431" fill="#2c27ea"/><circle r="4.372015708385441" cx="248.37201570838545" cy="431.7840228239431" fill="#3c27ea"/><circle r="4.723578208385441" cx="248.72357820838545" cy="462.1355853239431" fill="#4c27ea"/><circle r="5.075140708385441" cx="249.07514070838545" cy="492.4871478239431" fill="#5c27ea"/><line x1="278" y1="0" x2="278" y2="221.9063617676972" stroke-dasharray="8" stroke-linecap="round" stroke-width="4" stroke="#86595f"/><circle r="3.0184339269652014" cx="277.0184339269652" cy="314.9247956946624" fill="#2762ea"/><circle r="3.3699964269652014" cx="277.3699964269652" cy="345.2763581946624" fill="#2752ea"/><circle r="3.7215589269652014" cx="277.7215589269652" cy="375.6279206946624" fill="#2742ea"/><circle r="4.073121426965201" cx="278.0731214269652" cy="405.9794831946624" fill="#2732ea"/><circle r="4.424683926965201" cx="278.4246839269652" cy="436.3310456946624" fill="#2c27ea"/><circle r="4.776246426965201" cx="278.7762464269652" cy="466.6826081946624" fill="#3c27ea"/><circle r="5.127808926965201" cx="279.1278089269652" cy="497.0341706946624" fill="#4c27ea"/><line x1="308" y1="0" x2="308" y2="196.36354726446615" stroke-dasharray="8" stroke-linecap="round" stroke-width="4" stroke="#86595f"/><circle r="2.7191040695054625" cx="306.7191040695055" cy="289.0826513339716" fill="#2762ea"/><circle r="3.0706665695054625" cx="307.0706665695055" cy="319.4342138339716" fill="#2752ea"/><circle r="3.4222290695054625" cx="307.4222290695055" cy="349.7857763339716" fill="#2742ea"/><circle r="3.7737915695054625" cx="307.7737915695055" cy="380.1373388339716" fill="#2732ea"/><circle r="4.1253540695054625" cx="308.1253540695055" cy="410.4889013339716" fill="#2c27ea"/><circle r="4.4769165695054625" cx="308.4769165695055" cy="440.8404638339716" fill="#3c27ea"/><circle r="4.8284790695054625" cx="308.8284790695055" cy="471.1920263339716" fill="#4c27ea"/><circle r="5.1800415695054625" cx="309.1800415695055" cy="501.5435888339716" fill="#5c27ea"/><line x1="338" y1="0" x2="338" y2="251.35544984755143" stroke-dasharray="8" stroke-linecap="round" stroke-width="4" stroke="#86595f"/><circle r="3.3635404279009933" cx="337.363540427901" cy="344.7189902754524" fill="#2762ea"/><circle r="3.7151029279009933" cx="337.715102927901" cy="375.0705527754524" fill="#2752ea"/><circle r="4.066665427900993" cx="338.066665427901" cy="405.4221152754524" fill="#2742ea"/><circle r="4.418227927900993" cx="338.418227927901" cy="435.7736777754524" fill="#2732ea"/><circle r="4.769790427900993" cx="338.769790427901" cy="466.1252402754524" fill="#2c27ea"/><circle r="5.121352927900993" cx="339.121352927901" cy="496.4768027754524" fill="#3c27ea"/><line x1="368" y1="0" x2="368" y2="239.60632621410878" stroke-dasharray="8" stroke-linecap="round" stroke-width="4" stroke="#86595f"/><circle r="3.225855385321587" cx="367.2258553853216" cy="332.8321815994304" fill="#2762ea"/><circle r="3.577417885321587" cx="367.5774178853216" cy="363.1837440994304" fill="#2752ea"/><circle r="3.928980385321587" cx="367.9289803853216" cy="393.5353065994304" fill="#2742ea"/><circle r="4.280542885321587" cx="368.2805428853216" cy="423.8868690994304" fill="#2732ea"/><circle r="4.632105385321587" cx="368.6321053853216" cy="454.2384315994304" fill="#2c27ea"/><circle r="4.983667885321587" cx="368.9836678853216" cy="484.5899940994304" fill="#3c27ea"/><circle r="5.335230385321587" cx="369.3352303853216" cy="514.9415565994303" fill="#4c27ea"/><line x1="398" y1="0" x2="398" y2="224.26114359263022" stroke-dasharray="8" stroke-linecap="round" stroke-width="4" stroke="#86595f"/><circle r="3.0460290264761354" cx="397.04602902647616" cy="317.3071726191064" fill="#2762ea"/><circle r="3.3975915264761354" cx="397.39759152647616" cy="347.6587351191064" fill="#2752ea"/><circle r="3.7491540264761354" cx="397.74915402647616" cy="378.0102976191064" fill="#2742ea"/><circle r="4.100716526476136" cx="398.10071652647616" cy="408.3618601191064" fill="#2732ea"/><circle r="4.452279026476136" cx="398.45227902647616" cy="438.7134226191064" fill="#2c27ea"/><circle r="4.803841526476136" cx="398.80384152647616" cy="469.0649851191064" fill="#3c27ea"/><circle r="5.155404026476136" cx="399.15540402647616" cy="499.4165476191064" fill="#4c27ea"/><line x1="428" y1="0" x2="428" y2="223.8320114532263" stroke-dasharray="8" stroke-linecap="round" stroke-width="4" stroke="#86595f"/><circle r="3.0410001342174957" cx="427.0410001342175" cy="316.8730115874438" fill="#2762ea"/><circle r="3.3925626342174957" cx="427.3925626342175" cy="347.2245740874438" fill="#2752ea"/><circle r="3.7441251342174957" cx="427.7441251342175" cy="377.5761365874438" fill="#2742ea"/><circle r="4.095687634217496" cx="428.0956876342175" cy="407.9276990874438" fill="#2732ea"/><circle r="4.447250134217496" cx="428.4472501342175" cy="438.2792615874438" fill="#2c27ea"/><circle r="4.798812634217496" cx="428.7988126342175" cy="468.6308240874438" fill="#3c27ea"/><circle r="5.150375134217496" cx="429.1503751342175" cy="498.9823865874438" fill="#4c27ea"/><line x1="458" y1="0" x2="458" y2="205.99555591902953" stroke-dasharray="8" stroke-linecap="round" stroke-width="4" stroke="#86595f"/><circle r="2.831979170926127" cx="456.8319791709261" cy="298.82753508995563" fill="#2762ea"/><circle r="3.183541670926127" cx="457.1835416709261" cy="329.17909758995563" fill="#2752ea"/><circle r="3.535104170926127" cx="457.5351041709261" cy="359.53066008995563" fill="#2742ea"/><circle r="3.886666670926127" cx="457.8866666709261" cy="389.88222258995563" fill="#2732ea"/><circle r="4.238229170926127" cx="458.2382291709261" cy="420.23378508995563" fill="#2c27ea"/><circle r="4.589791670926127" cx="458.5897916709261" cy="450.58534758995563" fill="#3c27ea"/><circle r="4.941354170926127" cx="458.9413541709261" cy="480.93691008995563" fill="#4c27ea"/><circle r="5.292916670926127" cx="459.2929166709261" cy="511.28847258995563" fill="#5c27ea"/><line x1="488" y1="0" x2="488" y2="208.0666289455807" stroke-dasharray="8" stroke-linecap="round" stroke-width="4" stroke="#86595f"/><circle r="2.8562495579560236" cx="486.856249557956" cy="300.9228785035367" fill="#2762ea"/><circle r="3.2078120579560236" cx="487.207812057956" cy="331.2744410035367" fill="#2752ea"/><circle r="3.5593745579560236" cx="487.559374557956" cy="361.6260035035367" fill="#2742ea"/><circle r="3.9109370579560236" cx="487.910937057956" cy="391.9775660035367" fill="#2732ea"/><circle r="4.262499557956024" cx="488.262499557956" cy="422.3291285035367" fill="#2c27ea"/><circle r="4.614062057956024" cx="488.614062057956" cy="452.6806910035367" fill="#3c27ea"/><circle r="4.965624557956024" cx="488.965624557956" cy="483.0322535035367" fill="#4c27ea"/><circle r="5.317187057956024" cx="489.317187057956" cy="513.3838160035367" fill="#5c27ea"/><line x1="518" y1="0" x2="518" y2="215.96202523847154" stroke-dasharray="8" stroke-linecap="round" stroke-width="4" stroke="#86595f"/><circle r="2.948773733263338" cx="516.9487737332634" cy="308.9107989717349" fill="#2762ea"/><circle r="3.300336233263338" cx="517.3003362332634" cy="339.2623614717349" fill="#2752ea"/><circle r="3.651898733263338" cx="517.6518987332634" cy="369.6139239717349" fill="#2742ea"/><circle r="4.003461233263338" cx="518.0034612332634" cy="399.9654864717349" fill="#2732ea"/><circle r="4.355023733263338" cx="518.3550237332634" cy="430.3170489717349" fill="#2c27ea"/><circle r="4.706586233263338" cx="518.7065862332634" cy="460.6686114717349" fill="#3c27ea"/><circle r="5.058148733263338" cx="519.0581487332634" cy="491.0201739717349" fill="#4c27ea"/><line x1="548" y1="0" x2="548" y2="210.5448803888561" stroke-dasharray="8" stroke-linecap="round" stroke-width="4" stroke="#86595f"/><circle r="2.8852915670569073" cx="546.8852915670569" cy="303.430171955913" fill="#2762ea"/><circle r="3.2368540670569073" cx="547.2368540670569" cy="333.781734455913" fill="#2752ea"/><circle r="3.5884165670569073" cx="547.5884165670569" cy="364.133296955913" fill="#2742ea"/><circle r="3.9399790670569073" cx="547.9399790670569" cy="394.484859455913" fill="#2732ea"/><circle r="4.291541567056907" cx="548.2915415670569" cy="424.836421955913" fill="#2c27ea"/><circle r="4.643104067056907" cx="548.6431040670569" cy="455.187984455913" fill="#3c27ea"/><circle r="4.994666567056907" cx="548.9946665670569" cy="485.539546955913" fill="#4c27ea"/><circle r="5.346229067056907" cx="549.3462290670569" cy="515.891109455913" fill="#5c27ea"/><line x1="578" y1="0" x2="578" y2="225.21635154953998" stroke-dasharray="8" stroke-linecap="round" stroke-width="4" stroke="#86595f"/><circle r="3.057222869721172" cx="577.0572228697212" cy="318.27357441926114" fill="#2762ea"/><circle r="3.408785369721172" cx="577.4087853697212" cy="348.62513691926114" fill="#2752ea"/><circle r="3.760347869721172" cx="577.7603478697212" cy="378.97669941926114" fill="#2742ea"/><circle r="4.111910369721172" cx="578.1119103697212" cy="409.32826191926114" fill="#2732ea"/><circle r="4.463472869721172" cx="578.4634728697212" cy="439.67982441926114" fill="#2c27ea"/><circle r="4.815035369721172" cx="578.8150353697212" cy="470.03138691926114" fill="#3c27ea"/><circle r="5.166597869721172" cx="579.1665978697212" cy="500.38294941926114" fill="#4c27ea"/><line x1="608" y1="0" x2="608" y2="247.05066022504218" stroke-dasharray="8" stroke-linecap="round" stroke-width="4" stroke="#86595f"/><circle r="3.313093674512213" cx="607.3130936745122" cy="340.3637538995544" fill="#2762ea"/><circle r="3.664656174512213" cx="607.6646561745122" cy="370.7153163995544" fill="#2752ea"/><circle r="4.0162186745122135" cx="608.0162186745122" cy="401.0668788995544" fill="#2742ea"/><circle r="4.3677811745122135" cx="608.3677811745122" cy="431.4184413995544" fill="#2732ea"/><circle r="4.7193436745122135" cx="608.7193436745122" cy="461.7700038995544" fill="#2c27ea"/><circle r="5.0709061745122135" cx="609.0709061745122" cy="492.1215663995544" fill="#3c27ea"/><line x1="638" y1="0" x2="638" y2="202.01970695028115" stroke-dasharray="8" stroke-linecap="round" stroke-width="4" stroke="#86595f"/><circle r="2.785387190823607" cx="636.7853871908236" cy="294.80509414110475" fill="#2762ea"/><circle r="3.136949690823607" cx="637.1369496908236" cy="325.15665664110475" fill="#2752ea"/><circle r="3.488512190823607" cx="637.4885121908236" cy="355.50821914110475" fill="#2742ea"/><circle r="3.840074690823607" cx="637.8400746908236" cy="385.85978164110475" fill="#2732ea"/><circle r="4.191637190823608" cx="638.1916371908236" cy="416.21134414110475" fill="#2c27ea"/><circle r="4.543199690823608" cx="638.5431996908236" cy="446.56290664110475" fill="#3c27ea"/><circle r="4.894762190823608" cx="638.8947621908236" cy="476.91446914110475" fill="#4c27ea"/><circle r="5.246324690823608" cx="639.2463246908236" cy="507.26603164110475" fill="#5c27ea"/><line x1="668" y1="0" x2="668" y2="235.1797391659461" stroke-dasharray="8" stroke-linecap="round" stroke-width="4" stroke="#86595f"/><circle r="3.173981318350931" cx="667.1739813183509" cy="328.353720484297" fill="#2762ea"/><circle r="3.525543818350931" cx="667.5255438183509" cy="358.705282984297" fill="#2752ea"/><circle r="3.877106318350931" cx="667.8771063183509" cy="389.056845484297" fill="#2742ea"/><circle r="4.228668818350931" cx="668.2286688183509" cy="419.408407984297" fill="#2732ea"/><circle r="4.580231318350931" cx="668.5802313183509" cy="449.759970484297" fill="#2c27ea"/><circle r="4.931793818350931" cx="668.9317938183509" cy="480.111532984297" fill="#3c27ea"/><circle r="5.283356318350931" cx="669.2833563183509" cy="510.463095484297" fill="#4c27ea"/><line x1="698" y1="0" x2="698" y2="175.4066495644321" stroke-dasharray="8" stroke-linecap="round" stroke-width="4" stroke="#86595f"/><circle r="2.4735154245831885" cx="696.4735154245832" cy="267.88016498901527" fill="#2762ea"/><circle r="2.8250779245831885" cx="696.8250779245832" cy="298.23172748901527" fill="#2752ea"/><circle r="3.1766404245831885" cx="697.1766404245832" cy="328.58328998901527" fill="#2742ea"/><circle r="3.5282029245831885" cx="697.5282029245832" cy="358.93485248901527" fill="#2732ea"/><circle r="3.8797654245831885" cx="697.8797654245832" cy="389.28641498901527" fill="#2c27ea"/><circle r="4.231327924583189" cx="698.2313279245832" cy="419.63797748901527" fill="#3c27ea"/><circle r="4.582890424583189" cx="698.5828904245832" cy="449.98953998901527" fill="#4c27ea"/><circle r="4.934452924583189" cx="698.9344529245832" cy="480.34110248901527" fill="#5c27ea"/><circle r="5.286015424583189" cx="699.2860154245832" cy="510.69266498901527" fill="#6c27ea"/><line x1="728" y1="0" x2="728" y2="211.97745969631615" stroke-dasharray="8" stroke-linecap="round" stroke-width="4" stroke="#86595f"/><circle r="2.902079605816205" cx="726.9020796058162" cy="304.87953930213234" fill="#2762ea"/><circle r="3.253642105816205" cx="727.2536421058162" cy="335.23110180213234" fill="#2752ea"/><circle r="3.605204605816205" cx="727.6052046058162" cy="365.58266430213234" fill="#2742ea"/><circle r="3.956767105816205" cx="727.9567671058162" cy="395.93422680213234" fill="#2732ea"/><circle r="4.308329605816205" cx="728.3083296058162" cy="426.28578930213234" fill="#2c27ea"/><circle r="4.659892105816205" cx="728.6598921058162" cy="456.63735180213234" fill="#3c27ea"/><circle r="5.011454605816205" cx="729.0114546058162" cy="486.98891430213234" fill="#4c27ea"/><circle r="5.363017105816205" cx="729.3630171058162" cy="517.3404768021323" fill="#5c27ea"/><line x1="758" y1="0" x2="758" y2="243.32748577001712" stroke-dasharray="8" stroke-linecap="round" stroke-width="4" stroke="#86595f"/><circle r="3.269462723867388" cx="757.2694627238674" cy="336.5969484938845" fill="#2762ea"/><circle r="3.621025223867388" cx="757.6210252238674" cy="366.9485109938845" fill="#2752ea"/><circle r="3.972587723867388" cx="757.9725877238674" cy="397.3000734938845" fill="#2742ea"/><circle r="4.324150223867388" cx="758.3241502238674" cy="427.6516359938845" fill="#2732ea"/><circle r="4.675712723867388" cx="758.6757127238674" cy="458.0031984938845" fill="#2c27ea"/><circle r="5.027275223867388" cx="759.0272752238674" cy="488.3547609938845" fill="#3c27ea"/><line x1="788" y1="0" x2="788" y2="208.76431637058755" stroke-dasharray="8" stroke-linecap="round" stroke-width="4" stroke="#86595f"/><circle r="2.864425582467823" cx="786.8644255824678" cy="301.6287419530554" fill="#2762ea"/><circle r="3.215988082467823" cx="787.2159880824678" cy="331.9803044530554" fill="#2752ea"/><circle r="3.567550582467823" cx="787.5675505824678" cy="362.3318669530554" fill="#2742ea"/><circle r="3.919113082467823" cx="787.9191130824678" cy="392.6834294530554" fill="#2732ea"/><circle r="4.270675582467823" cx="788.2706755824678" cy="423.0349919530554" fill="#2c27ea"/><circle r="4.622238082467823" cx="788.6222380824678" cy="453.3865544530554" fill="#3c27ea"/><circle r="4.973800582467823" cx="788.9738005824678" cy="483.7381169530554" fill="#4c27ea"/><circle r="5.325363082467823" cx="789.3253630824678" cy="514.0896794530554" fill="#5c27ea"/><line x1="818" y1="0" x2="818" y2="184.08469923070936" stroke-dasharray="8" stroke-linecap="round" stroke-width="4" stroke="#86595f"/><circle r="2.5752113191098753" cx="816.5752113191098" cy="276.65991054981924" fill="#2762ea"/><circle r="2.9267738191098753" cx="816.9267738191098" cy="307.01147304981924" fill="#2752ea"/><circle r="3.2783363191098753" cx="817.2783363191098" cy="337.36303554981924" fill="#2742ea"/><circle r="3.6298988191098753" cx="817.6298988191098" cy="367.71459804981924" fill="#2732ea"/><circle r="3.9814613191098753" cx="817.9814613191098" cy="398.06616054981924" fill="#2c27ea"/><circle r="4.333023819109876" cx="818.3330238191098" cy="428.41772304981924" fill="#3c27ea"/><circle r="4.684586319109876" cx="818.6845863191098" cy="458.76928554981924" fill="#4c27ea"/><circle r="5.036148819109876" cx="819.0361488191098" cy="489.12084804981924" fill="#5c27ea"/><line x1="848" y1="0" x2="848" y2="258.75869942640503" stroke-dasharray="8" stroke-linecap="round" stroke-width="4" stroke="#86595f"/><circle r="3.450297258903184" cx="847.4502972589032" cy="352.2089966853082" fill="#2762ea"/><circle r="3.801859758903184" cx="847.8018597589032" cy="382.5605591853082" fill="#2752ea"/><circle r="4.153422258903184" cx="848.1534222589032" cy="412.9121216853082" fill="#2742ea"/><circle r="4.504984758903184" cx="848.5049847589032" cy="443.2636841853082" fill="#2732ea"/><circle r="4.856547258903184" cx="848.8565472589032" cy="473.6152466853082" fill="#2c27ea"/><circle r="5.208109758903184" cx="849.2081097589032" cy="503.9668091853082" fill="#3c27ea"/><line x1="878" y1="0" x2="878" y2="188.94698923419816" stroke-dasharray="8" stroke-linecap="round" stroke-width="4" stroke="#86595f"/><circle r="2.63219128008826" cx="876.6321912800883" cy="281.5791805142864" fill="#2762ea"/><circle r="2.98375378008826" cx="876.9837537800883" cy="311.9307430142864" fill="#2752ea"/><circle r="3.33531628008826" cx="877.3353162800883" cy="342.2823055142864" fill="#2742ea"/><circle r="3.68687878008826" cx="877.6868787800883" cy="372.6338680142864" fill="#2732ea"/><circle r="4.03844128008826" cx="878.0384412800883" cy="402.9854305142864" fill="#2c27ea"/><circle r="4.39000378008826" cx="878.3900037800883" cy="433.3369930142864" fill="#3c27ea"/><circle r="4.74156628008826" cx="878.7415662800883" cy="463.6885555142864" fill="#4c27ea"/><circle r="5.09312878008826" cx="879.0931287800883" cy="494.0401180142864" fill="#5c27ea"/></svg>